<svg xmlns="http://www.w3.org/2000/svg" width="1469" height="358" viewBox="0 0 1469 358" version="1.1"><path d="M 310.367 1.772 C 307.678 3.950, 306 7.192, 306 10.206 C 306 12.293, 305.294 12.678, 299.411 13.794 C 271.984 18.997, 246.248 40.556, 236.145 66.791 C 232.621 75.942, 230 87.956, 230 94.958 L 230 100 268 100 L 306 100 306 147.818 C 306 201.886, 306.179 203.529, 312.643 208.858 C 316.985 212.437, 322.686 214, 331.394 214 C 340.892 214, 347.446 212.320, 351.037 208.965 C 353.682 206.494, 354.075 205.492, 353.810 201.893 C 353.576 198.729, 352.849 197.216, 350.846 195.726 C 348.450 193.945, 347.593 193.858, 342.050 194.834 C 334.778 196.115, 331.394 195.167, 329.982 191.453 C 329.393 189.903, 329 171.097, 329 144.435 L 329 100 366.500 100 L 404 100 404 93.628 C 404 84.483, 399.915 69.589, 394.566 59.232 C 383.049 36.934, 362.347 20.551, 338.323 14.725 C 329.264 12.528, 329.139 12.457, 328.500 9.100 C 328.144 7.229, 326.571 4.417, 325.003 2.850 C 322.648 0.494, 321.317 0.004, 317.327 0.022 C 314.271 0.036, 311.717 0.678, 310.367 1.772" stroke="none" fill="#8cc43c" fill-rule="evenodd"/><path d="M 42.191 90.025 C 31.852 92.733, 25.551 96.417, 17.463 104.483 C 9.806 112.118, 5.331 119.961, 2.291 131.072 C -0.145 139.977, -0.153 161.944, 2.276 171 C 8.521 194.276, 24.659 209.812, 46 213.094 C 67.379 216.382, 87.377 210.582, 98.429 197.888 C 106 189.191, 110.636 175.248, 108.116 168.750 C 107.530 167.238, 105.576 165.102, 103.775 164.004 C 96.491 159.563, 89.892 162.781, 86.132 172.608 C 80.695 186.815, 71.407 193.420, 57 193.326 C 41.418 193.223, 30.289 182.834, 27.062 165.378 C 24.625 152.195, 26.466 134.934, 31.333 125.329 C 34.065 119.938, 41.457 112.541, 45.758 110.895 C 52.110 108.463, 58.613 107.778, 64.242 108.946 C 72.881 110.740, 77.718 114.584, 84.447 125.004 C 87.680 130.008, 91.122 134.530, 92.097 135.052 C 95.179 136.702, 101.547 136.144, 104.293 133.984 C 114.933 125.615, 104.499 103.843, 85.171 94.086 C 72.826 87.855, 56.400 86.302, 42.191 90.025 M 149.510 122.109 C 128.465 126.402, 116.044 143.248, 116.012 167.540 C 115.980 191.603, 127.389 207.580, 148.087 212.459 C 165.402 216.540, 184.222 212.430, 194.379 202.350 C 201.365 195.416, 203.038 187.748, 198.365 184.073 C 193.876 180.541, 191.055 181.350, 181.788 188.824 C 172.330 196.452, 166.991 198.542, 158.937 197.768 C 149.568 196.868, 141.694 188.593, 140.297 178.180 L 139.757 174.149 166.128 173.825 C 200.487 173.402, 202 172.755, 202 158.490 C 202 143.182, 192.287 129.756, 177 123.934 C 170.551 121.478, 157.010 120.579, 149.510 122.109 M 218.213 122.507 C 212.215 125.113, 212 126.669, 212 167.567 C 212 199.399, 212.214 204.649, 213.635 207.643 C 217.616 216.033, 229.502 216.050, 234.242 207.672 C 235.085 206.181, 235.632 197.349, 235.985 179.500 C 236.562 150.346, 236.692 149.790, 244.343 143.606 C 247.822 140.794, 248.848 140.500, 255.175 140.500 C 261.752 140.500, 262.330 140.686, 264.977 143.649 C 269.181 148.353, 270 154.377, 270 180.581 C 270 206.634, 270.563 209.688, 275.872 212.434 C 280.696 214.928, 285.470 214.445, 289.234 211.082 L 292.500 208.163 292.500 174.832 L 292.500 141.500 289.534 136.144 C 283.954 126.071, 275.419 121.571, 261.980 121.617 C 252.795 121.648, 244.721 124.929, 238.250 131.259 L 234 135.416 234 132.659 C 234 128.361, 231.207 123.984, 227.466 122.421 C 223.310 120.685, 222.386 120.694, 218.213 122.507 M 383.251 122.450 C 367.681 125.998, 357.190 136.219, 352.476 152.434 C 351.150 156.995, 350.861 161.009, 351.180 170.404 C 351.560 181.568, 351.850 183.058, 354.940 189.741 C 362.330 205.725, 376.823 214, 397.426 214 C 413.644 214, 428.593 206.599, 434.072 195.858 C 436.656 190.793, 436.500 187.409, 433.545 184.455 C 429.291 180.200, 425.376 181.047, 417.607 187.906 C 409.618 194.958, 405.237 197.209, 398.362 197.793 C 388.744 198.610, 381.478 194.369, 377.367 185.541 C 376.076 182.768, 375.015 179.037, 375.010 177.250 L 375 174 398.451 174 C 425.341 174, 430.796 173.219, 434.477 168.845 C 439.235 163.190, 437.507 149.331, 430.706 138.601 C 426.897 132.592, 417.569 125.552, 410.654 123.466 C 403.205 121.219, 390.689 120.755, 383.251 122.450 M 454.096 122.265 C 452.774 122.944, 450.749 124.770, 449.596 126.322 C 447.568 129.052, 447.491 130.365, 447.215 166.597 C 446.962 199.890, 447.116 204.442, 448.600 207.569 C 453.144 217.145, 467.075 215.591, 469.965 205.186 C 470.528 203.159, 470.991 193.145, 470.994 182.934 C 470.997 172.722, 471.491 161.711, 472.091 158.465 C 474.855 143.515, 480.905 139.625, 495.169 143.628 C 502.103 145.573, 506.208 144.432, 508.547 139.909 C 512.761 131.761, 507.060 124.707, 493.996 121.906 C 485.859 120.161, 480.052 122.036, 474.511 128.199 C 470.699 132.439, 469.923 132.919, 469.413 131.350 C 467.378 125.083, 466.413 123.653, 463.360 122.377 C 459.318 120.688, 457.214 120.663, 454.096 122.265 M 542.071 130.752 C 536.589 133.547, 534.617 137.091, 534.173 144.943 L 533.784 151.823 529.179 152.664 C 525.735 153.294, 524.201 154.170, 523.096 156.138 C 521.772 158.498, 521.796 159.040, 523.333 161.385 C 524.758 163.560, 525.799 164, 529.523 164 L 534 164 534 186.545 L 534 209.091 536.455 211.545 C 540.396 215.487, 546.054 214.730, 548.537 209.928 C 549.688 207.702, 550 202.507, 550 185.550 L 550 164 554.800 164 C 560.446 164, 562 162.778, 562 158.335 C 562 154.617, 560.622 153.584, 554.250 152.528 C 550.200 151.857, 550 151.661, 550 148.346 C 550 142.110, 551.267 141, 558.380 141 C 563.223 141, 565.075 140.575, 566.345 139.171 C 568.749 136.515, 568.377 133.442, 565.365 131.073 C 561.812 128.278, 547.314 128.078, 542.071 130.752 M 151.240 140.110 C 146.252 142.579, 143.297 146.362, 141.380 152.731 C 139.044 160.495, 137.784 160, 159.871 160 L 179.742 160 178.904 155.514 C 176.207 141.078, 163.537 134.023, 151.240 140.110 M 387.030 139.583 C 380.609 142.368, 376.682 147.880, 375.399 155.908 L 374.744 160 394.372 160 L 414 160 414 157.626 C 414 153.718, 411.104 146.722, 408.211 143.641 C 403.015 138.107, 394.288 136.435, 387.030 139.583 M 582.500 151.867 C 573.833 154.147, 566.679 159.959, 562.767 167.900 C 560.869 171.751, 560.500 174.128, 560.500 182.500 C 560.500 194.116, 562.285 199.218, 568.533 205.467 C 574.697 211.630, 579.928 213.499, 591 213.494 C 599.388 213.491, 601.101 213.174, 605.638 210.785 C 616.205 205.222, 621.398 195.577, 621.256 181.782 C 621.072 163.916, 610.277 152.398, 592.847 151.469 C 588.806 151.254, 584.150 151.433, 582.500 151.867 M 630.736 152.250 C 627.517 154.695, 627 158.964, 627 183.115 C 627 212.025, 627.570 214, 635.907 214 C 637.481 214, 639.524 213.040, 640.696 211.750 C 642.510 209.753, 642.811 207.700, 643.372 193.500 C 644.300 170.003, 646.155 165.241, 654.162 165.806 C 666.951 166.710, 667.312 166.661, 668.918 163.818 C 671.220 159.745, 669.494 156.012, 663.999 153.185 C 657.547 149.864, 651.102 150.539, 646.480 155.020 L 643.073 158.322 642.084 155.722 C 640.425 151.358, 634.356 149.501, 630.736 152.250 M 586.619 164.024 C 582.217 165.358, 579.116 168.870, 577.482 174.373 C 575.607 180.688, 575.614 184.338, 577.516 190.743 C 580.194 199.761, 587.640 203.728, 595.778 200.472 C 602.447 197.804, 604.500 193.532, 604.500 182.323 C 604.500 174.615, 604.170 172.705, 602.438 170.385 C 598.166 164.664, 592.298 162.304, 586.619 164.024 M 42.275 233.539 C 17.858 240.115, 1.878 261.423, 0.307 289.500 C -1.324 318.652, 10.832 343.075, 31.785 352.741 C 42.307 357.594, 58.853 359.156, 71.500 356.489 C 91.579 352.255, 107.134 336.647, 108.721 319.141 C 109.257 313.225, 109.182 312.982, 105.736 309.536 C 102.744 306.544, 101.513 306, 97.736 306 C 92.294 306, 88.952 308.890, 86.359 315.837 C 81.182 329.706, 73.240 335.988, 59.873 336.787 C 42.069 337.851, 30.527 327.899, 26.874 308.334 C 25.243 299.598, 26.290 282.817, 28.961 274.893 C 33.493 261.447, 42.945 253.450, 55.671 252.296 C 68.371 251.145, 77.842 256.663, 85.033 269.404 C 86.760 272.464, 89.518 276.100, 91.163 277.484 C 96.546 282.013, 104.320 280.060, 107.488 273.383 C 109.016 270.163, 109.090 268.981, 108.054 264.349 C 104.995 250.682, 90.967 238.004, 73.869 233.453 C 67.024 231.631, 49.178 231.680, 42.275 233.539 M 125.117 233.631 C 120.071 237.165, 120 238.012, 120 295 C 120 338.599, 120.254 348.671, 121.421 351.466 C 124.962 359.940, 137.524 359.967, 142.328 351.511 C 143.063 350.217, 143.654 340.232, 143.985 323.500 C 144.498 297.594, 144.510 297.484, 147.152 292.989 C 150.609 287.109, 156.068 284, 162.936 284 C 169.872 284, 173.344 285.977, 175.600 291.212 C 177.197 294.918, 177.519 299.231, 177.974 323 C 178.541 352.634, 178.747 353.784, 183.980 356.490 C 187.693 358.410, 191.311 358.408, 195.033 356.483 C 200.947 353.424, 201.134 352.151, 200.802 317.200 L 200.500 285.500 197.398 280 C 191.487 269.521, 180.822 264.222, 167.834 265.311 C 159.688 265.994, 153.672 268.495, 148.128 273.504 L 144 277.233 143.994 260.866 C 143.988 243.119, 143.117 238.026, 139.463 234.372 C 136.556 231.465, 128.782 231.063, 125.117 233.631 M 257.367 233.772 C 256.194 234.723, 254.731 236.483, 254.117 237.684 C 253.335 239.214, 253 256.229, 253 294.484 C 253 354.400, 252.898 353.345, 258.967 356.483 C 262.621 358.372, 265.119 358.395, 269.466 356.579 C 276.231 353.752, 276.080 355.261, 275.775 293.420 L 275.500 237.835 272.234 234.917 C 269.588 232.554, 268.070 232.004, 264.234 232.022 C 261.266 232.036, 258.704 232.689, 257.367 233.772 M 357.127 234.096 C 353.441 237.530, 353 240.265, 353 259.681 L 353 278.233 348.870 274.502 C 346.599 272.449, 342.211 269.600, 339.120 268.169 C 334.314 265.945, 332.125 265.568, 324 265.568 C 315.912 265.568, 313.682 265.948, 309 268.124 C 294.348 274.934, 287.325 286.957, 286.285 307.015 C 285.117 329.520, 293.260 346.572, 308.837 354.240 C 314.759 357.156, 316.357 357.498, 323.979 357.478 C 334.123 357.453, 341.058 354.753, 348.425 347.962 C 352.477 344.227, 353 343.992, 353 345.905 C 353 356.272, 365.222 361.714, 372.090 354.405 L 374.500 351.840 374.775 296.187 C 375.063 237.775, 374.979 236.500, 370.640 233.460 C 367.439 231.218, 359.832 231.576, 357.127 234.096 M 1231.437 235.065 L 1228.500 238.130 1228.238 293.315 C 1227.996 344.342, 1228.109 348.762, 1229.738 351.975 C 1233.428 359.254, 1244.787 359.678, 1249.044 352.696 C 1250.913 349.630, 1250.993 347.249, 1250.996 294.285 L 1251 239.070 1247.896 235.535 C 1245.090 232.338, 1244.295 232, 1239.583 232 C 1235.076 232, 1233.978 232.413, 1231.437 235.065 M 218.400 236.400 C 215.708 239.092, 215.001 240.602, 215.004 243.650 C 215.009 249.345, 218.063 253.671, 223.019 255.005 C 231.568 257.307, 238 252.491, 238 243.788 C 238 239.659, 237.519 238.365, 235.077 235.923 C 232.599 233.445, 231.365 233, 226.977 233 C 222.423 233, 221.391 233.409, 218.400 236.400 M 1193.400 236.400 C 1185.919 243.881, 1191.105 255.455, 1201.938 255.455 C 1209.716 255.455, 1215.268 248.174, 1213.074 240.852 C 1211.475 235.515, 1207.853 233, 1201.765 233 C 1197.452 233, 1196.354 233.446, 1193.400 236.400 M 1271.500 234.161 C 1267.764 236.215, 1266.045 239.338, 1266.022 244.115 C 1265.982 252.469, 1272.575 257.269, 1280.981 255.005 C 1290.108 252.547, 1292.048 238.662, 1283.855 234.425 C 1280.601 232.743, 1274.323 232.608, 1271.500 234.161 M 877.096 235.265 C 875.774 235.944, 873.749 237.771, 872.596 239.324 C 870.529 242.108, 870.500 242.889, 870.500 295.824 L 870.500 349.500 872.767 352.678 C 876.932 358.517, 886.050 359.463, 891.297 354.600 C 895.261 350.927, 895.988 346.159, 895.994 323.802 L 896 303.105 919.088 302.802 L 942.177 302.500 944.588 299.694 C 947.918 295.821, 947.898 289.807, 944.545 286.455 L 942.091 284 919.045 284 L 896 284 896 269.074 L 896 254.147 922.250 253.824 C 951.217 253.467, 952.150 253.280, 954.634 247.334 C 955.794 244.556, 955.865 243.120, 954.973 240.417 C 952.830 233.925, 953.292 233.998, 914.527 234.015 C 888.717 234.026, 878.867 234.355, 877.096 235.265 M 220.381 266.910 C 218.665 267.956, 216.753 270.271, 216.131 272.055 C 215.370 274.238, 215 287.220, 215 311.748 C 215 352.333, 215.158 353.424, 221.478 356.423 C 225.643 358.399, 228.298 358.414, 232.033 356.483 C 237.920 353.438, 238 352.829, 238 310.772 C 238 268.788, 238.119 269.664, 231.989 266.494 C 228.090 264.478, 224.136 264.620, 220.381 266.910 M 394.871 266.452 C 389.402 269.541, 389 272.631, 389 311.552 C 389 349.139, 389.234 351.283, 393.784 355.335 C 397.185 358.363, 402.919 358.565, 407 355.801 C 412.206 352.275, 412.880 349.061, 412.944 327.434 C 413.019 301.841, 415.090 291.852, 421.209 287.566 C 424.029 285.591, 431.939 285.548, 438.284 287.473 C 443.885 289.173, 446.732 288.427, 449.869 284.440 C 455.122 277.761, 450.453 269.641, 439.535 266.467 C 428.889 263.372, 421.023 265.671, 414.811 273.693 L 412.122 277.166 411.065 273.242 C 410.484 271.083, 409.125 268.518, 408.045 267.541 C 405.410 265.156, 398.218 264.562, 394.871 266.452 M 482.251 266.545 C 462.366 271.900, 451 287.952, 451 310.679 C 451 331.332, 458.366 345.134, 473.315 352.491 C 491.318 361.351, 515.401 358.968, 528.333 347.047 C 538.681 337.508, 538.568 326, 528.126 326 C 524.845 326, 523.310 326.841, 518.091 331.498 C 509.298 339.343, 504.897 341.421, 497 341.452 C 492.026 341.471, 489.557 340.939, 486.483 339.185 C 480.395 335.712, 475.157 326.812, 475.044 319.750 L 475 317 501.032 317 C 527.932 317, 531.664 316.524, 534.849 312.683 C 537.104 309.963, 537.905 304.099, 536.885 297.766 C 534.396 282.313, 522.368 269.632, 506.791 266.039 C 500.694 264.632, 488.413 264.886, 482.251 266.545 M 553 266.225 C 551.625 266.941, 549.713 269.097, 548.752 271.014 C 547.183 274.141, 547.003 278.238, 547.002 310.782 C 547 349.445, 547.200 351.250, 551.967 355.500 C 553.551 356.912, 555.624 357.500, 559.024 357.500 C 564.755 357.500, 568.442 354.669, 569.996 349.074 C 570.542 347.108, 570.994 335.600, 571 323.500 C 571.006 311.254, 571.476 299.825, 572.060 297.723 C 573.268 293.372, 578.026 287.555, 582.099 285.449 C 585.792 283.539, 594.329 283.601, 598.128 285.566 C 603.831 288.515, 604.400 291.544, 604.978 322 C 605.321 340.088, 605.896 350.188, 606.657 351.511 C 610.131 357.548, 617.208 359.542, 622.775 356.052 C 624.576 354.923, 626.489 352.845, 627.025 351.434 C 627.580 349.974, 628 335.848, 628 318.613 C 628 284.441, 627.657 282.300, 620.963 274.695 C 615.107 268.042, 608.612 265.510, 597.500 265.546 C 586.691 265.580, 581.540 267.544, 574.166 274.441 L 569.267 279.024 568.708 274.860 C 568.371 272.348, 567.188 269.733, 565.727 268.273 C 562.825 265.370, 556.570 264.364, 553 266.225 M 980.500 265.976 C 971.199 268.029, 963.187 272.165, 959.227 276.959 C 956.378 280.409, 954 286.131, 954 289.537 C 954 294.751, 958.424 299, 963.852 299 C 968.224 299, 969.813 297.840, 973.551 291.920 C 974.856 289.852, 977.593 286.886, 979.633 285.330 C 982.891 282.844, 984.359 282.457, 991.712 282.146 C 1002.330 281.696, 1005.622 282.957, 1008.105 288.424 C 1009.123 290.666, 1009.966 293.720, 1009.978 295.211 C 1009.997 297.611, 1009.417 298.096, 1004.923 299.430 C 1002.131 300.259, 993.244 302.328, 985.173 304.028 C 977.103 305.727, 968.605 307.821, 966.288 308.680 C 947.242 315.746, 944.340 341.284, 961.289 352.681 C 973.047 360.588, 990.188 359.341, 1006.280 349.408 C 1009.520 347.408, 1012.495 346.160, 1012.891 346.636 C 1013.287 347.111, 1014.846 349.188, 1016.357 351.251 C 1021.801 358.686, 1028.965 359.777, 1034.488 354.013 C 1037.771 350.586, 1037.983 347.272, 1035.417 339.500 C 1034.157 335.686, 1033.610 328.690, 1033.109 310 C 1032.525 288.204, 1032.225 285.003, 1030.387 281 C 1027.612 274.957, 1021.321 269.488, 1014.810 267.457 C 1008.683 265.546, 986.741 264.599, 980.500 265.976 M 1050.527 268.273 L 1047 271.800 1047 310.450 C 1047 353.466, 1046.982 353.340, 1053.588 356.475 C 1059.639 359.346, 1065.984 357.347, 1069.343 351.511 C 1070.096 350.202, 1070.685 340.430, 1071.031 323.500 C 1071.518 299.673, 1071.742 297.105, 1073.713 292.777 C 1076.431 286.807, 1080.771 284.009, 1087.316 284.004 C 1093.250 283.999, 1095.483 285.133, 1097.705 289.280 C 1099.186 292.042, 1099.507 296.626, 1099.966 321.500 C 1100.443 347.423, 1100.694 350.786, 1102.332 353.199 C 1105.910 358.471, 1115.484 359.314, 1119.773 354.735 C 1123.540 350.713, 1124 347.542, 1124 325.571 C 1124 302.980, 1124.884 295.049, 1127.851 291 C 1134.124 282.443, 1145.812 281.556, 1150.242 289.301 C 1151.136 290.864, 1151.645 299.748, 1152 320 C 1152.434 344.746, 1152.733 348.926, 1154.267 351.733 C 1156.294 355.442, 1160.594 358, 1164.802 358 C 1168.942 358, 1174.284 354.059, 1175.694 349.965 C 1177.223 345.526, 1177.411 297.139, 1175.935 288 C 1174.590 279.676, 1171.246 274.014, 1165.378 270.127 C 1159.803 266.434, 1155.830 265.476, 1146.500 265.573 C 1138.009 265.661, 1132.063 268.057, 1125.636 273.982 L 1121.123 278.142 1117.498 274.129 C 1111.780 267.801, 1106.102 265.525, 1096 265.511 C 1088.774 265.502, 1086.675 265.905, 1081.997 268.203 C 1078.971 269.689, 1074.851 272.410, 1072.843 274.250 L 1069.191 277.595 1068.614 273.990 C 1067.827 269.063, 1064.181 265.887, 1058.589 265.257 C 1054.424 264.788, 1053.766 265.034, 1050.527 268.273 M 1195.304 266.897 C 1190.110 270.160, 1189.850 272.537, 1190.191 313.685 L 1190.500 350.871 1193.425 353.923 C 1197.122 357.780, 1202.068 358.815, 1206.562 356.672 C 1213.460 353.382, 1213.464 353.361, 1213.823 316.046 C 1214.200 276.943, 1213.895 273.033, 1210.136 268.826 C 1206.547 264.809, 1199.987 263.956, 1195.304 266.897 M 1272.388 265.980 C 1271.227 266.449, 1269.314 268.057, 1268.138 269.552 C 1266.038 272.222, 1266 272.950, 1266.004 310.885 C 1266.007 346.900, 1266.134 349.707, 1267.885 352.580 C 1271.724 358.874, 1280.212 359.518, 1285.575 353.923 L 1288.500 350.871 1288.784 312.451 C 1289.029 279.316, 1288.855 273.620, 1287.517 271.033 C 1284.903 265.978, 1278.055 263.691, 1272.388 265.980 M 1330.251 266.545 C 1310.285 271.921, 1299 288.155, 1299 311.500 C 1299 337.093, 1312.745 353.706, 1336.824 357.216 C 1352.248 359.464, 1367.038 355.615, 1376.502 346.891 C 1382.063 341.766, 1384 338.319, 1384 333.550 C 1384 328.791, 1381.133 326, 1376.243 326 C 1373.117 326, 1371.419 326.930, 1366.145 331.529 C 1358.690 338.031, 1353.609 340.818, 1347.743 341.622 C 1335.852 343.252, 1325.113 334.396, 1323.345 321.503 L 1322.728 317 1348.896 317 C 1377.518 317, 1380.281 316.553, 1383.672 311.377 C 1386.225 307.481, 1385.902 297.760, 1382.959 289.889 C 1380.337 282.878, 1373.202 274.481, 1366.561 270.589 C 1357.415 265.229, 1341.656 263.474, 1330.251 266.545 M 1416.407 265.962 C 1405.811 268.241, 1398.358 273.526, 1394.436 281.541 C 1390.794 288.986, 1391.184 297.931, 1395.393 303.448 C 1401.247 311.123, 1404.222 312.524, 1433 321.155 C 1441.627 323.742, 1446 327.290, 1446 331.701 C 1446 337.967, 1439.837 342.014, 1430.349 341.978 C 1423.083 341.951, 1417.465 339.513, 1413.491 334.663 C 1411.846 332.655, 1409.218 329.435, 1407.652 327.506 C 1405.169 324.451, 1404.232 324, 1400.356 324 C 1394.355 324, 1391 327.222, 1391 332.987 C 1391 349.300, 1412.427 360.372, 1437.795 357.167 C 1457.313 354.702, 1467.354 346.216, 1468.732 331.021 C 1470.166 315.206, 1461.712 307.978, 1433 300.474 C 1417.150 296.331, 1414 294.361, 1414 288.593 C 1414 283.253, 1422.911 279.494, 1431.684 281.133 C 1435.705 281.885, 1437.530 283.072, 1442.990 288.490 C 1450.430 295.873, 1453.819 297.129, 1459.292 294.532 C 1463.956 292.318, 1465.702 288.228, 1464.129 283.198 C 1462.072 276.624, 1455.770 271.201, 1446.405 267.947 C 1439.728 265.627, 1423.083 264.526, 1416.407 265.962 M 825.455 274.455 C 823.101 276.808, 823 277.441, 823 289.887 L 823 302.865 817.988 299.492 C 810.178 294.236, 799.601 293.600, 791.247 297.884 C 786.614 300.260, 783.901 303.180, 780.922 309 C 777.814 315.073, 777.029 330.149, 779.398 338.297 C 784.719 356.601, 803.983 363.529, 818.579 352.388 C 822.591 349.325, 823 349.202, 823 351.052 C 823 353.915, 827.409 358, 830.500 358 C 831.925 358, 834.195 356.895, 835.545 355.545 L 838 353.091 838 315 L 838 276.909 835.545 274.455 C 834.195 273.105, 831.925 272, 830.500 272 C 829.075 272, 826.805 273.105, 825.455 274.455 M 486.180 283.682 C 481.896 285.792, 478.198 290.690, 476.416 296.614 C 474.037 304.516, 472.737 304, 495.019 304 L 515.038 304 514.429 301.250 C 512.183 291.103, 509.612 286.863, 503.956 283.977 C 499.178 281.540, 490.808 281.401, 486.180 283.682 M 1334.180 283.627 C 1329.874 285.820, 1326.189 290.721, 1324.416 296.614 C 1322.038 304.515, 1320.746 304, 1342.937 304 L 1362.874 304 1362.329 300.250 C 1361.482 294.420, 1358.140 288.208, 1354.258 285.248 C 1349.723 281.788, 1339.424 280.957, 1334.180 283.627 M 324.145 284.070 C 319.425 285.961, 315.886 289.287, 313.223 294.338 C 310.716 299.091, 310.501 300.412, 310.500 311.022 C 310.500 321.355, 310.759 323.047, 313.004 327.415 C 316.781 334.760, 321.711 338.279, 328.960 338.803 C 343.039 339.822, 351.415 329.638, 351.415 311.500 C 351.415 302.500, 350.016 297.410, 345.875 291.349 C 341.199 284.502, 331.324 281.195, 324.145 284.070 M 667.216 296.891 C 664.309 297.895, 660.779 299.792, 659.371 301.108 C 651.656 308.315, 652.463 318, 660.778 318 C 663.229 318, 664.487 317.196, 666.642 314.250 C 670.317 309.227, 671.745 308.146, 676.332 306.911 C 684.397 304.739, 689.841 307.333, 691.514 314.145 C 692.290 317.304, 691.354 317.698, 674.500 321.322 C 662.682 323.863, 658.749 325.469, 655.317 329.155 C 648.165 336.836, 650.348 349.181, 659.846 354.764 C 663.817 357.099, 665.601 357.496, 672.008 357.475 C 678.771 357.453, 680.187 357.081, 686.296 353.723 L 693.076 349.996 696.883 353.998 C 700.986 358.311, 703.294 358.883, 706.770 356.449 C 710.542 353.807, 711.113 351.689, 709.493 346.349 C 708.520 343.144, 708.018 337.026, 708.011 328.299 C 708.005 321.039, 707.505 312.791, 706.900 309.970 C 705.415 303.044, 701.260 298.452, 694.724 296.511 C 687.635 294.406, 673.859 294.596, 667.216 296.891 M 719 297 C 717.099 298.901, 717 300.333, 717 326.045 L 717 353.091 719.455 355.545 C 722.757 358.848, 726.470 358.684, 730.077 355.077 L 733 352.154 733.056 335.827 C 733.091 325.930, 733.583 318.135, 734.306 316.035 C 736.647 309.240, 746.829 305.611, 751.939 309.750 C 755.139 312.343, 755.950 317.672, 755.976 336.295 C 756 352.779, 756.046 353.136, 758.455 355.545 C 762.268 359.359, 768.665 358.226, 770.890 353.343 C 772.316 350.212, 772.370 313.874, 770.956 308.781 C 767.058 294.745, 748.540 290.486, 735.304 300.582 C 732.664 302.595, 732 302.781, 732 301.505 C 732 300.627, 730.895 298.805, 729.545 297.455 C 726.515 294.424, 721.780 294.220, 719 297 M 802.050 308.788 C 791.790 314.426, 791.219 336.895, 801.182 342.970 C 807.677 346.929, 815.816 344.490, 819.431 337.500 C 822.310 331.934, 822.346 319.937, 819.500 315.105 C 815.315 308, 808.183 305.418, 802.050 308.788 M 994.261 316.699 C 977.062 320.900, 974 322.959, 974 330.324 C 974 347.393, 1004.096 344.719, 1008.956 327.219 C 1010.150 322.919, 1010.358 312.947, 1009.250 313.111 C 1008.837 313.172, 1002.093 314.786, 994.261 316.699 M 679.698 330.432 C 669.882 332.934, 667.667 334.500, 667.667 338.939 C 667.667 345.464, 674.632 348.558, 682.530 345.542 C 688.069 343.426, 690.912 339.541, 691.682 333.035 C 692.391 327.047, 692.710 327.117, 679.698 330.432" stroke="none" fill="#047cc4" fill-rule="evenodd"/></svg>